<mxfile host="65bd71144e">
    <diagram id="pLtpVyUbuMatPzjlErbM" name="Page-1">
        <mxGraphModel dx="758" dy="518" grid="1" gridSize="10" guides="1" tooltips="1" connect="1" arrows="1" fold="1" page="1" pageScale="1" pageWidth="1169" pageHeight="827" math="0" shadow="0">
            <root>
                <mxCell id="0"/>
                <mxCell id="1" parent="0"/>
                <mxCell id="17" style="edgeStyle=orthogonalEdgeStyle;rounded=0;orthogonalLoop=1;jettySize=auto;html=1;exitX=0.5;exitY=1;exitDx=0;exitDy=0;" edge="1" parent="1" source="2" target="9">
                    <mxGeometry relative="1" as="geometry"/>
                </mxCell>
                <mxCell id="2" value="&lt;h2&gt;&lt;font face=&quot;IRANSans&quot;&gt;دسته بندی وظیفه&lt;/font&gt;&lt;/h2&gt;" style="whiteSpace=wrap;html=1;fillColor=#6a00ff;strokeColor=#3700CC;fontColor=#ffffff;" vertex="1" parent="1">
                    <mxGeometry x="590" y="290" width="160" height="60" as="geometry"/>
                </mxCell>
                <mxCell id="20" style="edgeStyle=orthogonalEdgeStyle;rounded=0;orthogonalLoop=1;jettySize=auto;html=1;entryX=0.5;entryY=1;entryDx=0;entryDy=0;exitX=0.5;exitY=0;exitDx=0;exitDy=0;" edge="1" parent="1" source="49" target="19">
                    <mxGeometry relative="1" as="geometry">
                        <mxPoint x="480" y="540" as="sourcePoint"/>
                    </mxGeometry>
                </mxCell>
                <mxCell id="25" style="edgeStyle=orthogonalEdgeStyle;rounded=0;orthogonalLoop=1;jettySize=auto;html=1;exitX=0.5;exitY=1;exitDx=0;exitDy=0;entryX=0.5;entryY=0;entryDx=0;entryDy=0;" edge="1" parent="1" source="3" target="22">
                    <mxGeometry relative="1" as="geometry"/>
                </mxCell>
                <mxCell id="3" value="&lt;h2&gt;&lt;font face=&quot;IRANSans&quot;&gt;ادمین&lt;/font&gt;&lt;/h2&gt;" style="whiteSpace=wrap;html=1;fillColor=#6a00ff;strokeColor=#3700CC;fontColor=#ffffff;" vertex="1" parent="1">
                    <mxGeometry x="240" y="550" width="160" height="60" as="geometry"/>
                </mxCell>
                <mxCell id="18" style="edgeStyle=orthogonalEdgeStyle;rounded=0;orthogonalLoop=1;jettySize=auto;html=1;exitX=0.5;exitY=0;exitDx=0;exitDy=0;entryX=0.5;entryY=1;entryDx=0;entryDy=0;" edge="1" parent="1" source="4" target="9">
                    <mxGeometry relative="1" as="geometry"/>
                </mxCell>
                <mxCell id="39" style="edgeStyle=orthogonalEdgeStyle;shape=link;rounded=0;orthogonalLoop=1;jettySize=auto;html=1;exitX=1;exitY=0.5;exitDx=0;exitDy=0;entryX=0.5;entryY=0;entryDx=0;entryDy=0;" edge="1" parent="1" source="123" target="36">
                    <mxGeometry relative="1" as="geometry"/>
                </mxCell>
                <mxCell id="4" value="&lt;h2&gt;&lt;font face=&quot;IRANSans&quot;&gt;وظیفه&lt;/font&gt;&lt;/h2&gt;" style="whiteSpace=wrap;html=1;fillColor=#d80073;strokeColor=#A50040;fontColor=#ffffff;" vertex="1" parent="1">
                    <mxGeometry x="520" y="680" width="160" height="80" as="geometry"/>
                </mxCell>
                <mxCell id="32" style="edgeStyle=orthogonalEdgeStyle;rounded=0;orthogonalLoop=1;jettySize=auto;html=1;exitX=0.5;exitY=1;exitDx=0;exitDy=0;" edge="1" parent="1" source="58" target="27">
                    <mxGeometry relative="1" as="geometry"/>
                </mxCell>
                <mxCell id="5" value="&lt;h2&gt;&lt;font face=&quot;IRANSans&quot;&gt;کارمند&lt;/font&gt;&lt;/h2&gt;" style="whiteSpace=wrap;html=1;fillColor=#6a00ff;strokeColor=#3700CC;fontColor=#ffffff;" vertex="1" parent="1">
                    <mxGeometry x="180" y="947" width="160" height="60" as="geometry"/>
                </mxCell>
                <mxCell id="34" style="edgeStyle=orthogonalEdgeStyle;shape=link;rounded=0;orthogonalLoop=1;jettySize=auto;html=1;entryX=0.5;entryY=1;entryDx=0;entryDy=0;exitX=0.5;exitY=0;exitDx=0;exitDy=0;" edge="1" parent="1" source="75" target="33">
                    <mxGeometry relative="1" as="geometry">
                        <mxPoint x="665" y="875" as="sourcePoint"/>
                    </mxGeometry>
                </mxCell>
                <mxCell id="6" value="&lt;h2&gt;&lt;font face=&quot;IRANSans&quot;&gt;به روز رسانی وظیفه&lt;/font&gt;&lt;/h2&gt;" style="whiteSpace=wrap;html=1;fillColor=#6a00ff;strokeColor=#3700CC;fontColor=#ffffff;" vertex="1" parent="1">
                    <mxGeometry x="577.46" y="1091" width="160" height="60" as="geometry"/>
                </mxCell>
                <mxCell id="7" value="&lt;h2&gt;&lt;font face=&quot;IRANSans&quot;&gt;مدیریت پروژه&lt;/font&gt;&lt;/h2&gt;" style="whiteSpace=wrap;html=1;fillColor=#6a00ff;strokeColor=#3700CC;fontColor=#ffffff;" vertex="1" parent="1">
                    <mxGeometry x="976.21" y="830" width="160" height="60" as="geometry"/>
                </mxCell>
                <mxCell id="42" style="edgeStyle=orthogonalEdgeStyle;rounded=0;orthogonalLoop=1;jettySize=auto;html=1;exitX=0;exitY=0.5;exitDx=0;exitDy=0;entryX=1;entryY=0.5;entryDx=0;entryDy=0;" edge="1" parent="1" source="8" target="40">
                    <mxGeometry relative="1" as="geometry"/>
                </mxCell>
                <mxCell id="8" value="&lt;h2&gt;&lt;font face=&quot;IRANSans&quot;&gt;کاربر&lt;/font&gt;&lt;/h2&gt;" style="whiteSpace=wrap;html=1;fillColor=#6a00ff;strokeColor=#3700CC;fontColor=#ffffff;" vertex="1" parent="1">
                    <mxGeometry x="976.21" y="490" width="160" height="60" as="geometry"/>
                </mxCell>
                <mxCell id="9" value="&lt;p&gt;تعلق داشتن&lt;/p&gt;" style="rhombus;whiteSpace=wrap;html=1;fillColor=#e3c800;strokeColor=#B09500;fontColor=#000000;fontFamily=IRANSans;" vertex="1" parent="1">
                    <mxGeometry x="572.5" y="520" width="55" height="60" as="geometry"/>
                </mxCell>
                <mxCell id="21" style="edgeStyle=orthogonalEdgeStyle;shape=link;rounded=0;orthogonalLoop=1;jettySize=auto;html=1;exitX=0.5;exitY=0;exitDx=0;exitDy=0;entryX=0;entryY=0.5;entryDx=0;entryDy=0;" edge="1" parent="1" source="19" target="2">
                    <mxGeometry relative="1" as="geometry"/>
                </mxCell>
                <mxCell id="19" value="&lt;p&gt;تایید&lt;/p&gt;" style="rhombus;whiteSpace=wrap;html=1;fillColor=#e3c800;strokeColor=#B09500;fontColor=#000000;fontFamily=IRANSans;" vertex="1" parent="1">
                    <mxGeometry x="400" y="410" width="60" height="60" as="geometry"/>
                </mxCell>
                <mxCell id="26" style="edgeStyle=orthogonalEdgeStyle;shape=link;rounded=0;orthogonalLoop=1;jettySize=auto;html=1;exitX=1;exitY=0.5;exitDx=0;exitDy=0;entryX=0;entryY=0.5;entryDx=0;entryDy=0;" edge="1" parent="1" source="22" target="4">
                    <mxGeometry relative="1" as="geometry"/>
                </mxCell>
                <mxCell id="22" value="&lt;p&gt;تایید&lt;/p&gt;" style="rhombus;whiteSpace=wrap;html=1;fillColor=#e3c800;strokeColor=#B09500;fontColor=#000000;fontFamily=IRANSans;" vertex="1" parent="1">
                    <mxGeometry x="360" y="660" width="60" height="60" as="geometry"/>
                </mxCell>
                <mxCell id="29" style="edgeStyle=orthogonalEdgeStyle;shape=link;rounded=0;orthogonalLoop=1;jettySize=auto;html=1;exitX=1;exitY=0.5;exitDx=0;exitDy=0;entryX=0.5;entryY=0;entryDx=0;entryDy=0;" edge="1" parent="1" source="27" target="70">
                    <mxGeometry relative="1" as="geometry">
                        <mxPoint x="509.33500000000004" y="1201" as="targetPoint"/>
                    </mxGeometry>
                </mxCell>
                <mxCell id="27" value="&lt;p&gt;به روز رسانی&lt;/p&gt;" style="rhombus;whiteSpace=wrap;html=1;fillColor=#e3c800;strokeColor=#B09500;fontColor=#000000;fontFamily=IRANSans;" vertex="1" parent="1">
                    <mxGeometry x="420" y="970" width="60" height="60" as="geometry"/>
                </mxCell>
                <mxCell id="35" style="edgeStyle=orthogonalEdgeStyle;rounded=0;orthogonalLoop=1;jettySize=auto;html=1;entryX=0.5;entryY=1;entryDx=0;entryDy=0;" edge="1" parent="1" source="33" target="119">
                    <mxGeometry relative="1" as="geometry"/>
                </mxCell>
                <mxCell id="33" value="&lt;p&gt;دارد&lt;/p&gt;" style="rhombus;whiteSpace=wrap;html=1;fillColor=#e3c800;strokeColor=#B09500;fontColor=#000000;fontFamily=IRANSans;" vertex="1" parent="1">
                    <mxGeometry x="570" y="860" width="60" height="60" as="geometry"/>
                </mxCell>
                <mxCell id="38" style="edgeStyle=orthogonalEdgeStyle;rounded=0;orthogonalLoop=1;jettySize=auto;html=1;exitX=1;exitY=0.5;exitDx=0;exitDy=0;entryX=0;entryY=0.5;entryDx=0;entryDy=0;" edge="1" parent="1" source="36" target="7">
                    <mxGeometry relative="1" as="geometry"/>
                </mxCell>
                <mxCell id="36" value="&lt;p&gt;مدیر&lt;/p&gt;" style="rhombus;whiteSpace=wrap;html=1;fillColor=#e3c800;strokeColor=#B09500;fontColor=#000000;fontFamily=IRANSans;" vertex="1" parent="1">
                    <mxGeometry x="860" y="765" width="60" height="60" as="geometry"/>
                </mxCell>
                <mxCell id="43" style="edgeStyle=orthogonalEdgeStyle;shape=link;rounded=0;orthogonalLoop=1;jettySize=auto;html=1;exitX=0;exitY=0.5;exitDx=0;exitDy=0;entryX=0.5;entryY=0;entryDx=0;entryDy=0;" edge="1" parent="1" source="40" target="117">
                    <mxGeometry relative="1" as="geometry">
                        <mxPoint x="670" y="670" as="targetPoint"/>
                    </mxGeometry>
                </mxCell>
                <mxCell id="40" value="&lt;p&gt;درخواست&lt;/p&gt;" style="rhombus;whiteSpace=wrap;html=1;fillColor=#e3c800;strokeColor=#B09500;fontColor=#000000;fontFamily=IRANSans;" vertex="1" parent="1">
                    <mxGeometry x="840" y="490" width="60" height="60" as="geometry"/>
                </mxCell>
                <mxCell id="44" value="&lt;font face=&quot;IRANSans&quot;&gt;نام کاربری&lt;/font&gt;" style="ellipse;whiteSpace=wrap;html=1;fillColor=#fa6800;strokeColor=#C73500;fontColor=#FFFFFF;" vertex="1" parent="1">
                    <mxGeometry x="80" y="400" width="93.75" height="50" as="geometry"/>
                </mxCell>
                <mxCell id="46" value="&lt;font face=&quot;IRANSans&quot;&gt;ایمیل&lt;/font&gt;" style="ellipse;whiteSpace=wrap;html=1;fillColor=#fa6800;strokeColor=#C73500;fontColor=#FFFFFF;" vertex="1" parent="1">
                    <mxGeometry x="180" y="350" width="93.75" height="50" as="geometry"/>
                </mxCell>
                <mxCell id="47" value="" style="endArrow=none;html=1;fontColor=#FFFFFF;entryX=0.25;entryY=0;entryDx=0;entryDy=0;exitX=0.5;exitY=1;exitDx=0;exitDy=0;" edge="1" parent="1" source="46" target="3">
                    <mxGeometry width="50" height="50" relative="1" as="geometry">
                        <mxPoint x="220" y="390" as="sourcePoint"/>
                        <mxPoint x="270" y="340" as="targetPoint"/>
                    </mxGeometry>
                </mxCell>
                <mxCell id="49" value="&lt;font face=&quot;IRANSans&quot;&gt;کلمه عبور&lt;/font&gt;" style="ellipse;whiteSpace=wrap;html=1;fillColor=#fa6800;strokeColor=#C73500;fontColor=#FFFFFF;" vertex="1" parent="1">
                    <mxGeometry x="343.13" y="490" width="93.75" height="50" as="geometry"/>
                </mxCell>
                <mxCell id="51" value="" style="endArrow=none;html=1;fontColor=#FFFFFF;exitX=0.5;exitY=1;exitDx=0;exitDy=0;entryX=0.75;entryY=0;entryDx=0;entryDy=0;" edge="1" parent="1" source="49" target="3">
                    <mxGeometry width="50" height="50" relative="1" as="geometry">
                        <mxPoint x="219" y="420" as="sourcePoint"/>
                        <mxPoint x="251" y="550" as="targetPoint"/>
                    </mxGeometry>
                </mxCell>
                <mxCell id="52" value="" style="endArrow=none;html=1;fontColor=#FFFFFF;entryX=0;entryY=0.5;entryDx=0;entryDy=0;exitX=0.5;exitY=1;exitDx=0;exitDy=0;" edge="1" parent="1" source="44" target="3">
                    <mxGeometry width="50" height="50" relative="1" as="geometry">
                        <mxPoint x="220" y="390" as="sourcePoint"/>
                        <mxPoint x="270" y="340" as="targetPoint"/>
                    </mxGeometry>
                </mxCell>
                <mxCell id="53" value="&lt;font face=&quot;IRANSans&quot;&gt;نام&lt;/font&gt;" style="ellipse;whiteSpace=wrap;html=1;fillColor=#fa6800;strokeColor=#C73500;fontColor=#FFFFFF;" vertex="1" parent="1">
                    <mxGeometry x="60" y="485" width="93.75" height="50" as="geometry"/>
                </mxCell>
                <mxCell id="54" value="" style="endArrow=none;html=1;fontColor=#FFFFFF;entryX=1;entryY=0.5;entryDx=0;entryDy=0;exitX=0;exitY=0.75;exitDx=0;exitDy=0;" edge="1" parent="1" source="3" target="53">
                    <mxGeometry width="50" height="50" relative="1" as="geometry">
                        <mxPoint x="220" y="590" as="sourcePoint"/>
                        <mxPoint x="270" y="540" as="targetPoint"/>
                    </mxGeometry>
                </mxCell>
                <mxCell id="55" value="&lt;h1&gt;&lt;font face=&quot;IRANSans&quot;&gt;&lt;u&gt;ID&lt;/u&gt;&lt;/font&gt;&lt;/h1&gt;" style="ellipse;whiteSpace=wrap;html=1;fillColor=#fa6800;strokeColor=#C73500;fontColor=#FFFFFF;" vertex="1" parent="1">
                    <mxGeometry x="306.25" y="340" width="93.75" height="50" as="geometry"/>
                </mxCell>
                <mxCell id="56" value="" style="endArrow=none;html=1;fontColor=#FFFFFF;entryX=0.5;entryY=1;entryDx=0;entryDy=0;exitX=0.406;exitY=-0.033;exitDx=0;exitDy=0;exitPerimeter=0;" edge="1" parent="1" source="3" target="55">
                    <mxGeometry width="50" height="50" relative="1" as="geometry">
                        <mxPoint x="220" y="560" as="sourcePoint"/>
                        <mxPoint x="270" y="510" as="targetPoint"/>
                    </mxGeometry>
                </mxCell>
                <mxCell id="58" value="&lt;font face=&quot;IRANSans&quot;&gt;ایمیل&lt;/font&gt;" style="ellipse;whiteSpace=wrap;html=1;fillColor=#fa6800;strokeColor=#C73500;fontColor=#FFFFFF;" vertex="1" parent="1">
                    <mxGeometry x="343.13" y="885" width="93.75" height="50" as="geometry"/>
                </mxCell>
                <mxCell id="59" value="" style="endArrow=none;html=1;fontColor=#FFFFFF;entryX=0;entryY=0.5;entryDx=0;entryDy=0;" edge="1" parent="1" target="58">
                    <mxGeometry width="50" height="50" relative="1" as="geometry">
                        <mxPoint x="320" y="947" as="sourcePoint"/>
                        <mxPoint x="370" y="897" as="targetPoint"/>
                    </mxGeometry>
                </mxCell>
                <mxCell id="60" value="&lt;h1&gt;&lt;font face=&quot;IRANSans&quot;&gt;&lt;u&gt;ID&lt;/u&gt;&lt;/font&gt;&lt;/h1&gt;" style="ellipse;whiteSpace=wrap;html=1;fillColor=#fa6800;strokeColor=#C73500;fontColor=#FFFFFF;" vertex="1" parent="1">
                    <mxGeometry x="313.74999999999994" y="1081" width="93.75" height="50" as="geometry"/>
                </mxCell>
                <mxCell id="61" value="" style="endArrow=none;html=1;fontColor=#FFFFFF;entryX=0.5;entryY=0;entryDx=0;entryDy=0;exitX=0.813;exitY=1.05;exitDx=0;exitDy=0;exitPerimeter=0;" edge="1" target="60" parent="1" source="5">
                    <mxGeometry width="50" height="50" relative="1" as="geometry">
                        <mxPoint x="320" y="1248.02" as="sourcePoint"/>
                        <mxPoint x="352.46875" y="1200" as="targetPoint"/>
                    </mxGeometry>
                </mxCell>
                <mxCell id="62" value="&lt;font face=&quot;IRANSans&quot;&gt;نام کاربری&lt;/font&gt;" style="ellipse;whiteSpace=wrap;html=1;fillColor=#fa6800;strokeColor=#C73500;fontColor=#FFFFFF;" vertex="1" parent="1">
                    <mxGeometry x="80" y="825" width="93.75" height="50" as="geometry"/>
                </mxCell>
                <mxCell id="63" value="" style="endArrow=none;html=1;fontColor=#FFFFFF;exitX=0.5;exitY=1;exitDx=0;exitDy=0;entryX=0.5;entryY=0;entryDx=0;entryDy=0;" edge="1" source="62" parent="1" target="5">
                    <mxGeometry width="50" height="50" relative="1" as="geometry">
                        <mxPoint x="260" y="625" as="sourcePoint"/>
                        <mxPoint x="250" y="820" as="targetPoint"/>
                    </mxGeometry>
                </mxCell>
                <mxCell id="64" value="&lt;font face=&quot;IRANSans&quot;&gt;نام&lt;/font&gt;" style="ellipse;whiteSpace=wrap;html=1;fillColor=#fa6800;strokeColor=#C73500;fontColor=#FFFFFF;" vertex="1" parent="1">
                    <mxGeometry x="20" y="920" width="93.75" height="50" as="geometry"/>
                </mxCell>
                <mxCell id="65" value="" style="endArrow=none;html=1;fontColor=#FFFFFF;entryX=1;entryY=0.5;entryDx=0;entryDy=0;exitX=0;exitY=0;exitDx=0;exitDy=0;" edge="1" target="64" parent="1" source="5">
                    <mxGeometry width="50" height="50" relative="1" as="geometry">
                        <mxPoint x="240" y="960" as="sourcePoint"/>
                        <mxPoint x="270" y="905" as="targetPoint"/>
                    </mxGeometry>
                </mxCell>
                <mxCell id="66" value="&lt;font face=&quot;IRANSans&quot;&gt;کلمه عبور&lt;/font&gt;" style="ellipse;whiteSpace=wrap;html=1;fillColor=#fa6800;strokeColor=#C73500;fontColor=#FFFFFF;" vertex="1" parent="1">
                    <mxGeometry x="220" y="810" width="93.75" height="50" as="geometry"/>
                </mxCell>
                <mxCell id="67" value="" style="endArrow=none;html=1;fontColor=#FFFFFF;exitX=0.5;exitY=1;exitDx=0;exitDy=0;entryX=0.75;entryY=0;entryDx=0;entryDy=0;" edge="1" source="66" parent="1" target="5">
                    <mxGeometry width="50" height="50" relative="1" as="geometry">
                        <mxPoint x="95.87" y="620" as="sourcePoint"/>
                        <mxPoint x="236.87" y="750" as="targetPoint"/>
                    </mxGeometry>
                </mxCell>
                <mxCell id="68" value="&lt;font face=&quot;IRANSans&quot;&gt;شناسه&lt;/font&gt;" style="ellipse;whiteSpace=wrap;html=1;fillColor=#fa6800;strokeColor=#C73500;fontColor=#FFFFFF;" vertex="1" parent="1">
                    <mxGeometry x="46.879999999999995" y="1030" width="93.75" height="50" as="geometry"/>
                </mxCell>
                <mxCell id="69" value="" style="endArrow=none;html=1;fontColor=#FFFFFF;entryX=1;entryY=0.5;entryDx=0;entryDy=0;" edge="1" target="68" parent="1" source="5">
                    <mxGeometry width="50" height="50" relative="1" as="geometry">
                        <mxPoint x="206.88" y="1057" as="sourcePoint"/>
                        <mxPoint x="296.88" y="1015" as="targetPoint"/>
                    </mxGeometry>
                </mxCell>
                <mxCell id="70" value="&lt;font face=&quot;IRANSans&quot;&gt;تاریخ&lt;/font&gt;" style="ellipse;whiteSpace=wrap;html=1;fillColor=#fa6800;strokeColor=#C73500;fontColor=#FFFFFF;" vertex="1" parent="1">
                    <mxGeometry x="462.46" y="1081" width="93.75" height="50" as="geometry"/>
                </mxCell>
                <mxCell id="74" value="" style="endArrow=none;html=1;fontColor=#FFFFFF;entryX=0;entryY=0.5;entryDx=0;entryDy=0;exitX=1;exitY=0.5;exitDx=0;exitDy=0;" edge="1" parent="1" source="70" target="6">
                    <mxGeometry width="50" height="50" relative="1" as="geometry">
                        <mxPoint x="541.46" y="1151" as="sourcePoint"/>
                        <mxPoint x="572.46" y="1131" as="targetPoint"/>
                    </mxGeometry>
                </mxCell>
                <mxCell id="75" value="&lt;h1&gt;&lt;font face=&quot;IRANSans&quot;&gt;&lt;u&gt;ID&lt;/u&gt;&lt;/font&gt;&lt;/h1&gt;" style="ellipse;whiteSpace=wrap;html=1;fillColor=#fa6800;strokeColor=#C73500;fontColor=#FFFFFF;" vertex="1" parent="1">
                    <mxGeometry x="616.25" y="970" width="93.75" height="50" as="geometry"/>
                </mxCell>
                <mxCell id="76" value="" style="endArrow=none;html=1;fontColor=#FFFFFF;entryX=0.5;entryY=1;entryDx=0;entryDy=0;exitX=0.5;exitY=0;exitDx=0;exitDy=0;" edge="1" parent="1" source="6" target="75">
                    <mxGeometry width="50" height="50" relative="1" as="geometry">
                        <mxPoint x="618.13" y="950" as="sourcePoint"/>
                        <mxPoint x="668.13" y="900" as="targetPoint"/>
                    </mxGeometry>
                </mxCell>
                <mxCell id="77" value="&lt;font face=&quot;IRANSans&quot;&gt;اطلاعات به روز رسانی&lt;/font&gt;" style="ellipse;whiteSpace=wrap;html=1;fillColor=#fa6800;strokeColor=#C73500;fontColor=#FFFFFF;" vertex="1" parent="1">
                    <mxGeometry x="772.46" y="1121" width="93.75" height="50" as="geometry"/>
                </mxCell>
                <mxCell id="78" value="&lt;font face=&quot;IRANSans&quot;&gt;شناسه کارمند&lt;/font&gt;" style="ellipse;whiteSpace=wrap;html=1;fillColor=#fa6800;strokeColor=#C73500;fontColor=#FFFFFF;" vertex="1" parent="1">
                    <mxGeometry x="672.46" y="1181" width="93.75" height="50" as="geometry"/>
                </mxCell>
                <mxCell id="79" value="&lt;font face=&quot;IRANSans&quot;&gt;شناسه وظیفه&lt;/font&gt;" style="ellipse;whiteSpace=wrap;html=1;fillColor=#fa6800;strokeColor=#C73500;fontColor=#FFFFFF;" vertex="1" parent="1">
                    <mxGeometry x="545.59" y="1191" width="93.75" height="50" as="geometry"/>
                </mxCell>
                <mxCell id="80" value="" style="endArrow=none;html=1;fontColor=#FFFFFF;entryX=0.169;entryY=1.033;entryDx=0;entryDy=0;entryPerimeter=0;" edge="1" parent="1" source="79" target="6">
                    <mxGeometry width="50" height="50" relative="1" as="geometry">
                        <mxPoint x="586.21" y="1211" as="sourcePoint"/>
                        <mxPoint x="636.21" y="1161" as="targetPoint"/>
                    </mxGeometry>
                </mxCell>
                <mxCell id="81" value="" style="endArrow=none;html=1;fontColor=#FFFFFF;exitX=0.5;exitY=0;exitDx=0;exitDy=0;entryX=0.75;entryY=1;entryDx=0;entryDy=0;" edge="1" parent="1" source="78" target="6">
                    <mxGeometry width="50" height="50" relative="1" as="geometry">
                        <mxPoint x="654.34" y="1171" as="sourcePoint"/>
                        <mxPoint x="704.34" y="1121" as="targetPoint"/>
                    </mxGeometry>
                </mxCell>
                <mxCell id="82" value="" style="endArrow=none;html=1;fontColor=#FFFFFF;entryX=0;entryY=0;entryDx=0;entryDy=0;" edge="1" parent="1" target="77">
                    <mxGeometry width="50" height="50" relative="1" as="geometry">
                        <mxPoint x="737.46" y="1121" as="sourcePoint"/>
                        <mxPoint x="787.46" y="1071" as="targetPoint"/>
                    </mxGeometry>
                </mxCell>
                <mxCell id="107" value="&lt;font face=&quot;IRANSans&quot;&gt;تاریخ شروع&lt;/font&gt;" style="ellipse;whiteSpace=wrap;html=1;fillColor=#fa6800;strokeColor=#C73500;fontColor=#FFFFFF;" vertex="1" parent="1">
                    <mxGeometry x="610.59" y="580" width="75" height="40" as="geometry"/>
                </mxCell>
                <mxCell id="108" value="" style="endArrow=none;html=1;fontColor=#FFFFFF;entryX=0.5;entryY=1;entryDx=0;entryDy=0;exitX=0.7;exitY=-0.025;exitDx=0;exitDy=0;exitPerimeter=0;" edge="1" parent="1" source="4" target="107">
                    <mxGeometry width="50" height="50" relative="1" as="geometry">
                        <mxPoint x="660" y="680" as="sourcePoint"/>
                        <mxPoint x="710" y="630" as="targetPoint"/>
                    </mxGeometry>
                </mxCell>
                <mxCell id="109" value="&lt;font face=&quot;IRANSans&quot;&gt;نام&lt;/font&gt;" style="ellipse;whiteSpace=wrap;html=1;fillColor=#fa6800;strokeColor=#C73500;fontColor=#FFFFFF;" vertex="1" parent="1">
                    <mxGeometry x="476.25" y="550" width="93.75" height="50" as="geometry"/>
                </mxCell>
                <mxCell id="110" value="" style="endArrow=none;html=1;fontColor=#FFFFFF;entryX=0.659;entryY=1.02;entryDx=0;entryDy=0;entryPerimeter=0;exitX=0.4;exitY=-0.037;exitDx=0;exitDy=0;exitPerimeter=0;" edge="1" parent="1" source="4" target="109">
                    <mxGeometry width="50" height="50" relative="1" as="geometry">
                        <mxPoint x="498.13" y="650" as="sourcePoint"/>
                        <mxPoint x="548.13" y="600" as="targetPoint"/>
                    </mxGeometry>
                </mxCell>
                <mxCell id="111" value="&lt;font face=&quot;IRANSans&quot;&gt;توضیحات&lt;/font&gt;" style="ellipse;whiteSpace=wrap;html=1;fillColor=#fa6800;strokeColor=#C73500;fontColor=#FFFFFF;" vertex="1" parent="1">
                    <mxGeometry x="420" y="610" width="93.75" height="50" as="geometry"/>
                </mxCell>
                <mxCell id="112" value="" style="endArrow=none;html=1;fontColor=#FFFFFF;entryX=0.928;entryY=0.78;entryDx=0;entryDy=0;entryPerimeter=0;exitX=0.25;exitY=0;exitDx=0;exitDy=0;" edge="1" parent="1" source="4" target="111">
                    <mxGeometry width="50" height="50" relative="1" as="geometry">
                        <mxPoint x="450" y="700" as="sourcePoint"/>
                        <mxPoint x="500" y="650" as="targetPoint"/>
                    </mxGeometry>
                </mxCell>
                <mxCell id="113" value="&lt;font face=&quot;IRANSans&quot;&gt;شناسه دسته بندی&lt;/font&gt;" style="ellipse;whiteSpace=wrap;html=1;fillColor=#fa6800;strokeColor=#C73500;fontColor=#FFFFFF;" vertex="1" parent="1">
                    <mxGeometry x="368.71" y="730" width="93.75" height="50" as="geometry"/>
                </mxCell>
                <mxCell id="114" value="" style="endArrow=none;html=1;fontColor=#FFFFFF;entryX=0;entryY=0.75;entryDx=0;entryDy=0;exitX=1;exitY=0;exitDx=0;exitDy=0;" edge="1" parent="1" source="113" target="4">
                    <mxGeometry width="50" height="50" relative="1" as="geometry">
                        <mxPoint x="460" y="750" as="sourcePoint"/>
                        <mxPoint x="510" y="700" as="targetPoint"/>
                    </mxGeometry>
                </mxCell>
                <mxCell id="115" value="&lt;font face=&quot;IRANSans&quot;&gt;تاریخ پایان&lt;/font&gt;" style="ellipse;whiteSpace=wrap;html=1;fillColor=#fa6800;strokeColor=#C73500;fontColor=#FFFFFF;" vertex="1" parent="1">
                    <mxGeometry x="691.21" y="560" width="75" height="40" as="geometry"/>
                </mxCell>
                <mxCell id="116" value="" style="endArrow=none;html=1;fontColor=#FFFFFF;entryX=0.5;entryY=1;entryDx=0;entryDy=0;exitX=1;exitY=0;exitDx=0;exitDy=0;" edge="1" parent="1" source="4" target="115">
                    <mxGeometry width="50" height="50" relative="1" as="geometry">
                        <mxPoint x="680" y="650" as="sourcePoint"/>
                        <mxPoint x="730" y="600" as="targetPoint"/>
                    </mxGeometry>
                </mxCell>
                <mxCell id="117" value="&lt;font face=&quot;IRANSans&quot;&gt;وضعیت&lt;/font&gt;" style="ellipse;whiteSpace=wrap;html=1;fillColor=#fa6800;strokeColor=#C73500;fontColor=#FFFFFF;" vertex="1" parent="1">
                    <mxGeometry x="766.21" y="600" width="75" height="40" as="geometry"/>
                </mxCell>
                <mxCell id="118" value="" style="endArrow=none;html=1;fontColor=#FFFFFF;entryX=0.5;entryY=1;entryDx=0;entryDy=0;exitX=1;exitY=0.25;exitDx=0;exitDy=0;" edge="1" parent="1" source="4" target="117">
                    <mxGeometry width="50" height="50" relative="1" as="geometry">
                        <mxPoint x="691.21" y="700" as="sourcePoint"/>
                        <mxPoint x="741.21" y="650" as="targetPoint"/>
                    </mxGeometry>
                </mxCell>
                <mxCell id="119" value="&lt;font face=&quot;IRANSans&quot;&gt;شناسه ادمین&lt;/font&gt;" style="ellipse;whiteSpace=wrap;html=1;fillColor=#fa6800;strokeColor=#C73500;fontColor=#FFFFFF;" vertex="1" parent="1">
                    <mxGeometry x="553.13" y="780" width="93.75" height="50" as="geometry"/>
                </mxCell>
                <mxCell id="120" value="" style="endArrow=none;html=1;fontColor=#FFFFFF;entryX=0.5;entryY=1;entryDx=0;entryDy=0;exitX=0.5;exitY=0;exitDx=0;exitDy=0;" edge="1" parent="1" source="119" target="4">
                    <mxGeometry width="50" height="50" relative="1" as="geometry">
                        <mxPoint x="596.88" y="780" as="sourcePoint"/>
                        <mxPoint x="646.88" y="730" as="targetPoint"/>
                    </mxGeometry>
                </mxCell>
                <mxCell id="121" value="&lt;font face=&quot;IRANSans&quot;&gt;شناسه کاربر&lt;/font&gt;" style="ellipse;whiteSpace=wrap;html=1;fillColor=#fa6800;strokeColor=#C73500;fontColor=#FFFFFF;" vertex="1" parent="1">
                    <mxGeometry x="426.25" y="790" width="93.75" height="50" as="geometry"/>
                </mxCell>
                <mxCell id="122" value="" style="endArrow=none;html=1;fontColor=#FFFFFF;entryX=0;entryY=1;entryDx=0;entryDy=0;exitX=0.5;exitY=0;exitDx=0;exitDy=0;" edge="1" parent="1" source="121" target="4">
                    <mxGeometry width="50" height="50" relative="1" as="geometry">
                        <mxPoint x="470" y="790" as="sourcePoint"/>
                        <mxPoint x="520" y="740" as="targetPoint"/>
                    </mxGeometry>
                </mxCell>
                <mxCell id="123" value="&lt;font face=&quot;IRANSans&quot;&gt;شناسه مدیر&lt;/font&gt;" style="ellipse;whiteSpace=wrap;html=1;fillColor=#fa6800;strokeColor=#C73500;fontColor=#FFFFFF;" vertex="1" parent="1">
                    <mxGeometry x="730" y="710" width="93.75" height="50" as="geometry"/>
                </mxCell>
                <mxCell id="124" value="" style="endArrow=none;html=1;fontColor=#FFFFFF;entryX=0;entryY=0.5;entryDx=0;entryDy=0;exitX=1.006;exitY=0.625;exitDx=0;exitDy=0;exitPerimeter=0;" edge="1" parent="1" source="4" target="123">
                    <mxGeometry width="50" height="50" relative="1" as="geometry">
                        <mxPoint x="600" y="710" as="sourcePoint"/>
                        <mxPoint x="650" y="660" as="targetPoint"/>
                    </mxGeometry>
                </mxCell>
                <mxCell id="125" value="&lt;h1&gt;&lt;font face=&quot;IRANSans&quot;&gt;&lt;u&gt;ID&lt;/u&gt;&lt;/font&gt;&lt;/h1&gt;" style="ellipse;whiteSpace=wrap;html=1;fillColor=#fa6800;strokeColor=#C73500;fontColor=#FFFFFF;" vertex="1" parent="1">
                    <mxGeometry x="627.5" y="120" width="93.75" height="50" as="geometry"/>
                </mxCell>
                <mxCell id="126" value="" style="endArrow=none;html=1;fontColor=#FFFFFF;entryX=0.5;entryY=1;entryDx=0;entryDy=0;exitX=0.5;exitY=0;exitDx=0;exitDy=0;" edge="1" parent="1" source="2" target="125">
                    <mxGeometry width="50" height="50" relative="1" as="geometry">
                        <mxPoint x="600" y="310" as="sourcePoint"/>
                        <mxPoint x="650" y="260" as="targetPoint"/>
                    </mxGeometry>
                </mxCell>
                <mxCell id="128" value="&lt;font face=&quot;IRANSans&quot;&gt;شناسه ادمین&lt;/font&gt;" style="ellipse;whiteSpace=wrap;html=1;fillColor=#fa6800;strokeColor=#C73500;fontColor=#FFFFFF;" vertex="1" parent="1">
                    <mxGeometry x="766.25" y="160" width="93.75" height="50" as="geometry"/>
                </mxCell>
                <mxCell id="129" value="" style="endArrow=none;html=1;fontColor=#FFFFFF;entryX=0.392;entryY=1.06;entryDx=0;entryDy=0;entryPerimeter=0;exitX=0.75;exitY=0;exitDx=0;exitDy=0;" edge="1" parent="1" source="2" target="128">
                    <mxGeometry width="50" height="50" relative="1" as="geometry">
                        <mxPoint x="760" y="260" as="sourcePoint"/>
                        <mxPoint x="810" y="210" as="targetPoint"/>
                    </mxGeometry>
                </mxCell>
                <mxCell id="130" value="&lt;font face=&quot;IRANSans&quot;&gt;نام&lt;/font&gt;" style="ellipse;whiteSpace=wrap;html=1;fillColor=#fa6800;strokeColor=#C73500;fontColor=#FFFFFF;" vertex="1" parent="1">
                    <mxGeometry x="476.25" y="160" width="93.75" height="50" as="geometry"/>
                </mxCell>
                <mxCell id="131" value="" style="endArrow=none;html=1;fontColor=#FFFFFF;entryX=0.5;entryY=1;entryDx=0;entryDy=0;exitX=0.25;exitY=0;exitDx=0;exitDy=0;" edge="1" parent="1" source="2" target="130">
                    <mxGeometry width="50" height="50" relative="1" as="geometry">
                        <mxPoint x="600" y="300" as="sourcePoint"/>
                        <mxPoint x="650" y="250" as="targetPoint"/>
                    </mxGeometry>
                </mxCell>
                <mxCell id="132" value="&lt;h1&gt;&lt;font face=&quot;IRANSans&quot;&gt;&lt;u&gt;ID&lt;/u&gt;&lt;/font&gt;&lt;/h1&gt;" style="ellipse;whiteSpace=wrap;html=1;fillColor=#fa6800;strokeColor=#C73500;fontColor=#FFFFFF;" vertex="1" parent="1">
                    <mxGeometry x="1066.87" y="310" width="93.75" height="50" as="geometry"/>
                </mxCell>
                <mxCell id="133" value="" style="endArrow=none;html=1;fontColor=#FFFFFF;entryX=0.5;entryY=0;entryDx=0;entryDy=0;exitX=0.5;exitY=1;exitDx=0;exitDy=0;" edge="1" parent="1" source="132" target="8">
                    <mxGeometry width="50" height="50" relative="1" as="geometry">
                        <mxPoint x="900" y="300" as="sourcePoint"/>
                        <mxPoint x="950" y="250" as="targetPoint"/>
                    </mxGeometry>
                </mxCell>
                <mxCell id="134" value="&lt;font face=&quot;IRANSans&quot;&gt;نام&lt;/font&gt;" style="ellipse;whiteSpace=wrap;html=1;fillColor=#fa6800;strokeColor=#C73500;fontColor=#FFFFFF;" vertex="1" parent="1">
                    <mxGeometry x="920" y="314" width="93.75" height="50" as="geometry"/>
                </mxCell>
                <mxCell id="135" value="" style="endArrow=none;html=1;fontColor=#FFFFFF;entryX=0.25;entryY=0;entryDx=0;entryDy=0;exitX=0.5;exitY=1;exitDx=0;exitDy=0;" edge="1" parent="1" source="134" target="8">
                    <mxGeometry width="50" height="50" relative="1" as="geometry">
                        <mxPoint x="870" y="390" as="sourcePoint"/>
                        <mxPoint x="820" y="250" as="targetPoint"/>
                    </mxGeometry>
                </mxCell>
                <mxCell id="136" value="&lt;font face=&quot;IRANSans&quot;&gt;ایمیل&lt;/font&gt;" style="ellipse;whiteSpace=wrap;html=1;fillColor=#fa6800;strokeColor=#C73500;fontColor=#FFFFFF;" vertex="1" parent="1">
                    <mxGeometry x="810" y="380" width="93.75" height="50" as="geometry"/>
                </mxCell>
                <mxCell id="137" value="" style="endArrow=none;html=1;fontColor=#FFFFFF;entryX=0;entryY=0.25;entryDx=0;entryDy=0;exitX=0.5;exitY=1;exitDx=0;exitDy=0;" edge="1" parent="1" source="136" target="8">
                    <mxGeometry width="50" height="50" relative="1" as="geometry">
                        <mxPoint x="820" y="300" as="sourcePoint"/>
                        <mxPoint x="870" y="250" as="targetPoint"/>
                    </mxGeometry>
                </mxCell>
                <mxCell id="138" value="&lt;font face=&quot;IRANSans&quot;&gt;نام کاربری&lt;/font&gt;" style="ellipse;whiteSpace=wrap;html=1;fillColor=#fa6800;strokeColor=#C73500;fontColor=#FFFFFF;" vertex="1" parent="1">
                    <mxGeometry x="1190" y="364" width="93.75" height="50" as="geometry"/>
                </mxCell>
                <mxCell id="139" value="&lt;font face=&quot;IRANSans&quot;&gt;کلمه عبور&lt;/font&gt;" style="ellipse;whiteSpace=wrap;html=1;fillColor=#fa6800;strokeColor=#C73500;fontColor=#FFFFFF;" vertex="1" parent="1">
                    <mxGeometry x="1250" y="480" width="93.75" height="50" as="geometry"/>
                </mxCell>
                <mxCell id="140" value="" style="endArrow=none;html=1;fontColor=#FFFFFF;entryX=0.5;entryY=1;entryDx=0;entryDy=0;exitX=0.75;exitY=0;exitDx=0;exitDy=0;" edge="1" parent="1" source="8" target="138">
                    <mxGeometry width="50" height="50" relative="1" as="geometry">
                        <mxPoint x="1150" y="450" as="sourcePoint"/>
                        <mxPoint x="1200" y="400" as="targetPoint"/>
                    </mxGeometry>
                </mxCell>
                <mxCell id="141" value="" style="endArrow=none;html=1;fontColor=#FFFFFF;entryX=0;entryY=0.5;entryDx=0;entryDy=0;exitX=1;exitY=0.25;exitDx=0;exitDy=0;" edge="1" parent="1" source="8" target="139">
                    <mxGeometry width="50" height="50" relative="1" as="geometry">
                        <mxPoint x="1020" y="500" as="sourcePoint"/>
                        <mxPoint x="1070" y="450" as="targetPoint"/>
                    </mxGeometry>
                </mxCell>
                <mxCell id="142" value="&lt;font face=&quot;IRANSans&quot;&gt;محتوا&lt;/font&gt;" style="ellipse;whiteSpace=wrap;html=1;fillColor=#fa6800;strokeColor=#C73500;fontColor=#FFFFFF;" vertex="1" parent="1">
                    <mxGeometry x="1000" y="620" width="93.75" height="50" as="geometry"/>
                </mxCell>
                <mxCell id="143" value="" style="endArrow=none;html=1;fontColor=#FFFFFF;entryX=0.5;entryY=0;entryDx=0;entryDy=0;exitX=0.5;exitY=1;exitDx=0;exitDy=0;" edge="1" parent="1" source="8" target="142">
                    <mxGeometry width="50" height="50" relative="1" as="geometry">
                        <mxPoint x="1020" y="500" as="sourcePoint"/>
                        <mxPoint x="1070" y="450" as="targetPoint"/>
                    </mxGeometry>
                </mxCell>
                <mxCell id="144" value="&lt;font face=&quot;IRANSans&quot;&gt;نام کاربری&lt;/font&gt;" style="ellipse;whiteSpace=wrap;html=1;fillColor=#fa6800;strokeColor=#C73500;fontColor=#FFFFFF;" vertex="1" parent="1">
                    <mxGeometry x="1190" y="364" width="93.75" height="50" as="geometry"/>
                </mxCell>
                <mxCell id="145" value="&lt;font face=&quot;IRANSans&quot;&gt;کلمه عبور&lt;/font&gt;" style="ellipse;whiteSpace=wrap;html=1;fillColor=#fa6800;strokeColor=#C73500;fontColor=#FFFFFF;" vertex="1" parent="1">
                    <mxGeometry x="1250" y="897" width="93.75" height="50" as="geometry"/>
                </mxCell>
                <mxCell id="146" value="&lt;font face=&quot;IRANSans&quot;&gt;نام کاربری&lt;/font&gt;" style="ellipse;whiteSpace=wrap;html=1;fillColor=#fa6800;strokeColor=#C73500;fontColor=#FFFFFF;" vertex="1" parent="1">
                    <mxGeometry x="1210" y="770" width="93.75" height="50" as="geometry"/>
                </mxCell>
                <mxCell id="147" value="" style="endArrow=none;html=1;fontColor=#FFFFFF;entryX=0;entryY=0.5;entryDx=0;entryDy=0;exitX=0.75;exitY=0;exitDx=0;exitDy=0;" edge="1" parent="1" source="7" target="146">
                    <mxGeometry width="50" height="50" relative="1" as="geometry">
                        <mxPoint x="1020" y="850" as="sourcePoint"/>
                        <mxPoint x="1070" y="800" as="targetPoint"/>
                    </mxGeometry>
                </mxCell>
                <mxCell id="148" value="" style="endArrow=none;html=1;fontColor=#FFFFFF;entryX=0;entryY=0.5;entryDx=0;entryDy=0;exitX=0.75;exitY=1;exitDx=0;exitDy=0;" edge="1" parent="1" source="7" target="145">
                    <mxGeometry width="50" height="50" relative="1" as="geometry">
                        <mxPoint x="1020" y="850" as="sourcePoint"/>
                        <mxPoint x="1070" y="800" as="targetPoint"/>
                    </mxGeometry>
                </mxCell>
                <mxCell id="149" value="&lt;font face=&quot;IRANSans&quot;&gt;شناسه مدیر&lt;/font&gt;" style="ellipse;whiteSpace=wrap;html=1;fillColor=#fa6800;strokeColor=#C73500;fontColor=#FFFFFF;" vertex="1" parent="1">
                    <mxGeometry x="990" y="952" width="93.75" height="50" as="geometry"/>
                </mxCell>
                <mxCell id="150" value="" style="endArrow=none;html=1;fontColor=#FFFFFF;entryX=0.5;entryY=1;entryDx=0;entryDy=0;exitX=0.5;exitY=0;exitDx=0;exitDy=0;" edge="1" parent="1" source="149" target="7">
                    <mxGeometry width="50" height="50" relative="1" as="geometry">
                        <mxPoint x="1031.21" y="952" as="sourcePoint"/>
                        <mxPoint x="1081.21" y="902" as="targetPoint"/>
                    </mxGeometry>
                </mxCell>
                <mxCell id="151" value="&lt;font face=&quot;IRANSans&quot;&gt;ایمیل&lt;/font&gt;" style="ellipse;whiteSpace=wrap;html=1;fillColor=#fa6800;strokeColor=#C73500;fontColor=#FFFFFF;" vertex="1" parent="1">
                    <mxGeometry x="840" y="952" width="93.75" height="50" as="geometry"/>
                </mxCell>
                <mxCell id="152" value="&lt;font face=&quot;IRANSans&quot;&gt;نام&lt;/font&gt;" style="ellipse;whiteSpace=wrap;html=1;fillColor=#fa6800;strokeColor=#C73500;fontColor=#FFFFFF;" vertex="1" parent="1">
                    <mxGeometry x="800" y="850" width="93.75" height="50" as="geometry"/>
                </mxCell>
                <mxCell id="153" value="" style="endArrow=none;html=1;fontColor=#FFFFFF;entryX=1;entryY=0.5;entryDx=0;entryDy=0;exitX=0;exitY=0.75;exitDx=0;exitDy=0;" edge="1" parent="1" source="7" target="152">
                    <mxGeometry width="50" height="50" relative="1" as="geometry">
                        <mxPoint x="970" y="860" as="sourcePoint"/>
                        <mxPoint x="1020" y="810" as="targetPoint"/>
                    </mxGeometry>
                </mxCell>
                <mxCell id="154" value="&lt;h1&gt;&lt;font face=&quot;IRANSans&quot;&gt;&lt;u&gt;ID&lt;/u&gt;&lt;/font&gt;&lt;/h1&gt;" style="ellipse;whiteSpace=wrap;html=1;fillColor=#fa6800;strokeColor=#C73500;fontColor=#FFFFFF;" vertex="1" parent="1">
                    <mxGeometry x="999.9999999999999" y="710" width="93.75" height="50" as="geometry"/>
                </mxCell>
                <mxCell id="155" value="" style="endArrow=none;html=1;fontColor=#FFFFFF;exitX=0.5;exitY=0;exitDx=0;exitDy=0;entryX=0.5;entryY=1;entryDx=0;entryDy=0;" edge="1" parent="1" source="7" target="154">
                    <mxGeometry width="50" height="50" relative="1" as="geometry">
                        <mxPoint x="970" y="760" as="sourcePoint"/>
                        <mxPoint x="1020" y="710" as="targetPoint"/>
                    </mxGeometry>
                </mxCell>
                <mxCell id="156" value="" style="endArrow=none;html=1;fontColor=#FFFFFF;exitX=0.5;exitY=0;exitDx=0;exitDy=0;entryX=0;entryY=1;entryDx=0;entryDy=0;" edge="1" parent="1" source="151" target="7">
                    <mxGeometry width="50" height="50" relative="1" as="geometry">
                        <mxPoint x="970" y="860" as="sourcePoint"/>
                        <mxPoint x="1020" y="810" as="targetPoint"/>
                    </mxGeometry>
                </mxCell>
            </root>
        </mxGraphModel>
    </diagram>
</mxfile>
